<svg xmlns="http://www.w3.org/2000/svg" x="0px" y="0px" width="44px" height="44px" viewBox="0 0 44 44"><path fill="#FFF" d="M22,41.5C11.248,41.5,2.5,32.752,2.5,22C2.5,11.248,11.248,2.5,22,2.5c10.752,0,19.5,8.748,19.5,19.5 C41.5,32.752,32.752,41.5,22,41.5z"/><path fill="#8F552B" d="M22,5c9.374,0,17,7.626,17,17s-7.626,17-17,17S5,31.374,5,22S12.626,5,22,5 M22,0C9.85,0,0,9.85,0,22 c0,12.151,9.85,22,22,22c12.151,0,22-9.849,22-22C44,9.85,34.151,0,22,0L22,0z"/><path fill="none" stroke="#EC1C24" stroke-width="4.766" d="M-30.85,13.35"/><path fill="none" stroke="#DC1E77" stroke-width="4.766" d="M-26.63 14.702"/><path d="M15 10H21V34H15z"/><path fill="#FFF" stroke="#0073BB" stroke-width="2" stroke-miterlimit="10" d="M-4 20.5"/><path d="M15 10H31.012V16H15zM15 20H29V26H15z"/></svg>