<svg xmlns="http://www.w3.org/2000/svg" width="88" height="88" viewBox="0 0 88 88"><path fill="#FFF" d="M10 83c-2.76 0-5-2.24-5-5V10c0-2.76 2.24-5 5-5h68c2.76 0 5 2.24 5 5v68c0 2.76-2.24 5-5 5H10z"/><path fill="#46A573" d="M77.98 10c.01 0 .01.01.01.01L78 77.98s-.01.02 0 .02l-67.97.01c-.01 0-.02-.02-.03-.02l-.01-67.96c.01-.01.02-.03.01-.03h67.98M78 0H10C4.5 0 0 4.5 0 10v68c0 5.5 4.5 10 10 10h68c5.5 0 10-4.5 10-10V10c0-5.5-4.5-10-10-10z"/><g><path d="M29.2 27.35h6.4v22.73c0 9.67-4.68 12.9-11.65 12.9-1.77 0-4-.31-5.36-.83l.78-5.15c1.04.31 2.44.62 3.95.62 3.64 0 5.88-1.66 5.88-7.75V27.35zM48.07 52.47l-3.02 9.93h-6.6l11.23-35.05h8.17L69.24 62.4h-6.86l-3.17-9.93H48.07zm10.04-4.84L55.35 39c-.68-2.13-1.25-4.52-1.77-6.55h-.1c-.52 2.03-1.04 4.47-1.66 6.55l-2.7 8.63h8.99z"/></g></svg>