<svg xmlns="http://www.w3.org/2000/svg" x="0px" y="0px" width="80px" height="80px" viewBox="0 0 80 80"><path fill="#662280" d="M67.27,80H12.73C5.73,80,0,74.27,0,67.27V12.73C0,5.73,5.73,0,12.73,0h54.55C74.27,0,80,5.73,80,12.73v54.55	C80,74.27,74.27,80,67.27,80z"/><path fill="#FFF" d="M29.69 47.6c0-1.14-.41-2.04-1.22-2.68-.81-.63-2.23-1.31-4.27-1.98-2.04-.67-3.7-1.34-5-1.98-4.21-2.07-6.3-4.91-6.3-8.51 0-1.8.52-3.39 1.57-4.76 1.05-1.37 2.54-2.45 4.45-3.21 1.92-.76 4.07-1.15 6.47-1.15 2.33 0 4.43.42 6.28 1.24 1.85.82 3.28 2.02 4.31 3.55 1.03 1.53 1.53 3.3 1.53 5.28h-7.8c0-1.32-.41-2.35-1.22-3.08-.81-.74-1.9-1.09-3.29-1.09-1.4 0-2.5.3-3.31.93-.81.62-1.22 1.4-1.22 2.35 0 .84.44 1.59 1.33 2.26.89.67 2.46 1.37 4.71 2.09 2.25.72 4.08 1.5 5.53 2.33 3.51 2.02 5.26 4.81 5.26 8.36 0 2.84-1.07 5.07-3.21 6.68-2.14 1.61-5.07 2.44-8.8 2.44-2.63 0-5.01-.47-7.14-1.42-2.13-.95-3.74-2.23-4.82-3.88-1.08-1.65-1.61-3.54-1.61-5.67h7.85c0 1.74.44 3.02 1.34 3.84.9.82 2.36 1.24 4.38 1.24 1.29 0 2.32-.28 3.07-.84C29.32 49.39 29.69 48.61 29.69 47.6zM68.11 54.76h-7.53V41.64H49.42v13.12h-7.57V23.33h7.57v12.47h11.16V23.33h7.53V54.76L68.11 54.76z"/></svg>