<svg xmlns="http://www.w3.org/2000/svg" width="88" viewBox="0 0 88 88" version="1.0" height="88" stroke="#000"><defs><clipPath id="a"><path d="M0 0 L88 0 L88 88 L0 88 L0 0 Z"/></clipPath></defs><path d="M88 76 C88 82.6 82.6 88 76 88 L12 88 C5.4 88 0 82.6 0 76 L0 12 C0 5.4 5.4 0 12 0 L76 0 C82.6 0 88 5.4 88 12 L88 76 Z" clip-path="url(#a)" fill="#0071C1" stroke="none"/><path d="M11.08 55.04L11.08 50.26C14.38 51.17 16.85 51.72 18.48 51.89 20.11 52.07 21.61 52.16 22.98 52.16 25.45 52.16 27.29 51.8 28.51 51.07 29.73 50.34 30.33 49.47 30.33 48.45 30.33 47.67 29.99 46.97 29.31 46.34 28.63 45.73 26.96 44.93 24.31 43.95L21.46 42.92C17.39 41.43 14.63 40.05 13.19 38.78 11.73 37.51 11 36.05 11 34.38 11 32.28 12.22 30.49 14.65 29 17.08 27.51 20.58 26.76 25.14 26.76 28.54 26.76 32.38 27.08 36.65 27.72L36.65 32.18C32.28 31.11 28.81 30.58 26.24 30.58 24.11 30.58 22.49 30.88 21.38 31.49 20.27 32.1 19.71 32.83 19.71 33.68 19.71 34.33 20.05 34.94 20.73 35.51 21.39 36.07 23.05 36.85 25.7 37.82L28.76 38.93C33.43 40.65 36.41 42.14 37.7 43.41 38.97 44.69 39.6 46.12 39.6 47.71 39.6 49.99 38.28 51.94 35.64 53.55 33 55.17 28.79 55.97 23.03 55.97 19.59 55.98 15.61 55.67 11.08 55.04zM62.58 55.98C58.82 55.98 55.55 55.38 52.77 54.18 49.99 52.98 47.87 51.26 46.42 49.01 44.97 46.76 44.25 44.21 44.25 41.37 44.25 38.54 44.97 35.99 46.42 33.73 47.87 31.47 49.99 29.75 52.79 28.55 55.59 27.35 58.85 26.75 62.58 26.75 66.29 26.75 69.54 27.35 72.34 28.55 75.14 29.75 77.26 31.47 78.71 33.73 80.16 35.99 80.88 38.53 80.88 41.37 80.88 44.22 80.16 46.76 78.71 49.01 77.26 51.26 75.15 52.98 72.38 54.18 69.6 55.38 66.33 55.98 62.58 55.98zM62.58 52.16C66.06 52.16 68.65 51.07 70.35 48.88 72.05 46.69 72.9 44.18 72.9 41.36 72.9 38.52 72.05 36.02 70.34 33.84 68.63 31.66 66.04 30.57 62.58 30.57 59.1 30.57 56.5 31.66 54.79 33.84 53.08 36.02 52.23 38.52 52.23 41.36 52.23 44.18 53.08 46.69 54.78 48.88 56.48 51.07 59.08 52.16 62.58 52.16z" clip-path="url(#a)" fill="#fff" stroke="none"/><path d="M8.15 61.85H80.7V64.4H8.15z" clip-path="url(#a)" fill="#E4873A" stroke="none"/></svg>